<svg viewBox="0 0 900 600" xmlns="http://www.w3.org/2000/svg" role="img" aria-label="Kanchi Pattu silk saree in mustard with green and gold border">
  <defs>
    <pattern id="w3" width="10" height="10" patternTransform="rotate(45)" patternUnits="userSpaceOnUse"><rect width="10" height="10" fill="#C58A1E"/><line x1="0" y1="0" x2="0" y2="10" stroke="rgba(255,255,255,.08)" stroke-width="3"/></pattern>
    <pattern id="z3" width="22" height="22" patternUnits="userSpaceOnUse"><rect width="22" height="22" fill="#1E5B3A"/><rect x="5" y="5" width="9" height="9" fill="#F4DE97" opacity=".95"/></pattern>
    <pattern id="b3" width="100" height="100" patternUnits="userSpaceOnUse"><g fill="#8A5A12" opacity=".55"><path d="M50 34 l7 16 -7 16 -7 -16 z"/><circle cx="50" cy="50" r="3"/></g></pattern>
    <pattern id="t3" width="28" height="18" patternUnits="userSpaceOnUse"><path d="M3 16 L14 3 L25 16 Z" fill="#F4DE97"/></pattern>
  </defs>
  <rect width="900" height="600" fill="url(#w3)"/>
  <rect x="80" y="150" width="820" height="370" fill="url(#b3)"/>
  <rect x="0" y="0" width="900" height="150" fill="#96690F"/>
  <rect x="0" y="120" width="900" height="4" fill="#F4DE97"/>
  <rect x="0" y="132" width="900" height="2" fill="#F4DE97" opacity=".7"/>
  <rect x="80" y="150" width="820" height="18" fill="url(#t3)"/>
  <g fill="none" stroke="#F4DE97" stroke-width="3" opacity=".95"><circle cx="200" cy="62" r="15"/><circle cx="360" cy="62" r="15"/><circle cx="520" cy="62" r="15"/><circle cx="680" cy="62" r="15"/></g>
  <g fill="#F4DE97"><circle cx="200" cy="62" r="4"/><circle cx="360" cy="62" r="4"/><circle cx="520" cy="62" r="4"/><circle cx="680" cy="62" r="4"/></g>
  <rect x="0" y="0" width="80" height="600" fill="url(#z3)"/>
  <rect x="80" y="0" width="4" height="600" fill="#F4DE97"/>
  <rect x="0" y="520" width="900" height="80" fill="url(#z3)"/>
  <rect x="0" y="516" width="900" height="4" fill="#F4DE97"/>
</svg>
